# xmcd CD database file
#
# Track frame offsets:
#	150
#	19689
#	38128
#	62492
#	84251
#
# Disc length: 1313 seconds
#
# Revision: 0
# Processed by: cddbd v1.5.2PL0 Copyright (c) Steve Scherf et al.
# Submitted via: CDex 1.51
#
DISCID=2e051f05
DTITLE=The Rose and Crown - The Rose and Crown
DYEAR=1900
DGENRE=Jazz
TTITLE0=Title Song
TTITLE1=364
TTITLE2=No 25
TTITLE3=Fly
TTITLE4=Secret
EXTD=
EXTT0=
EXTT1=
EXTT2=
EXTT3=
EXTT4=
PLAYORDER=
